<?xml version="1.0" encoding="UTF-8"?>
<svg version="1.1" xmlns="http://www.w3.org/2000/svg" width="500" height="500">
<path d="M0 0 C0.04666636 22.00031192 0.08196247 44.0006157 0.10362434 66.00096703 C0.11394848 76.21550524 0.12803047 86.43001274 0.15087891 96.64453125 C0.17077805 105.54477223 0.18370816 114.44499098 0.18817699 123.34525359 C0.19079028 128.06034002 0.19695611 132.77536283 0.21146011 137.49042892 C0.22498918 141.92428998 0.22923217 146.35806095 0.22621536 150.79194069 C0.22676763 152.42301357 0.23077283 154.05408933 0.23841095 155.68514442 C0.24829924 157.90474109 0.24599156 160.12399348 0.24050903 162.34359741 C0.24235262 163.58801794 0.24419621 164.83243847 0.24609566 166.11456871 C0 169 0 169 -2 171 C-4.24291992 171.47875977 -4.24291992 171.47875977 -7 171 C-9.24930787 169.17583521 -11.13484853 167.42437964 -13.11328125 165.33984375 C-13.68652634 164.75715225 -14.25977142 164.17446075 -14.85038757 163.57411194 C-16.68324902 161.70668259 -18.49826936 159.82301861 -20.3125 157.9375 C-22.6997774 155.48372285 -25.09382835 153.03661637 -27.48828125 150.58984375 C-28.06137024 150.00121048 -28.63445923 149.41257721 -29.22491455 148.80610657 C-32.81599189 145.13673406 -36.52464782 141.69998661 -40.44506836 138.3815918 C-42.62942764 136.44073936 -44.36378436 134.26245203 -46.125 131.9375 C-50.37193787 126.56593746 -55.06246181 121.82217965 -60.03955078 117.12280273 C-67.73495266 109.69625012 -71.00136806 103.21465384 -71.26719666 92.54008484 C-71.32559253 89.0175845 -71.37417898 85.49526849 -71.4050293 81.97241211 C-71.42661602 80.12098547 -71.46072721 78.26966106 -71.50756836 76.41870117 C-71.5748512 73.73050011 -71.602068 71.04439494 -71.62109375 68.35546875 C-71.64892441 67.53749313 -71.67675507 66.71951752 -71.70542908 65.87675476 C-71.68222813 59.32006501 -69.35188596 55.77377776 -65 51 C-64.35748291 50.28779297 -63.71496582 49.57558594 -63.05297852 48.84179688 C-62.50053467 48.30619141 -61.94809082 47.77058594 -61.37890625 47.21875 C-60.75701416 46.60845947 -60.13512207 45.99816895 -59.49438477 45.36938477 C-58.53810181 44.44403931 -58.53810181 44.44403931 -57.5625 43.5 C-53.04525683 39.06153641 -48.65414583 34.61741931 -44.5546875 29.78515625 C-41.56801429 26.355735 -38.44240656 22.97550544 -35 20 C-34.34 20 -33.68 20 -33 20 C-32.34 18.68 -31.68 17.36 -31 16 C-30.34 16 -29.68 16 -29 16 C-29 15.34 -29 14.68 -29 14 C-27.12555165 12.11159794 -25.10518203 10.45121346 -23.06640625 8.7421875 C-20.91307415 6.97669021 -20.91307415 6.97669021 -18.75 4.75 C-13.25931396 1.25592707 -6.44705729 0 0 0 Z M-29.546875 51.484375 C-31.15081383 53.11237291 -32.74741996 54.74735672 -34.34375 56.3828125 C-37.41479115 59.49946317 -40.57623074 62.26591088 -44 65 C-46.18819684 69.37639368 -45.3918148 75.15447477 -45.45996094 80.01098633 C-45.48649521 81.45338275 -45.52734257 82.89559208 -45.58300781 84.3371582 C-46.12059521 92.69428925 -46.12059521 92.69428925 -43.5534668 100.41748047 C-41.80027792 102.18358288 -40.04796785 103.59358094 -38 105 C-37.24332031 105.69609375 -36.48664063 106.3921875 -35.70703125 107.109375 C-34.76923828 107.92148438 -34.76923828 107.92148438 -33.8125 108.75 C-33.17957031 109.30171875 -32.54664063 109.8534375 -31.89453125 110.421875 C-29.98298637 112.01417218 -27.99028265 113.50728801 -26 115 C-26 93.22 -26 71.44 -26 49 C-27.47367833 48.88362184 -27.47367833 48.88362184 -29.546875 51.484375 Z " fill="#1B7E9E" transform="translate(341,146)"/>
<path d="M0 0 C3.66591076 0.77822211 5.17260687 1.86655033 7.75 4.625 C10.41925821 7.40815977 13.11375819 10.01504088 16.0625 12.5 C19.42998116 15.39577173 22.28471711 18.51476871 25.15234375 21.8984375 C27.1780441 24.20251105 29.31422567 26.34751158 31.5 28.5 C34.24213496 31.20065729 36.83969663 33.92688892 39.3125 36.875 C42.83731779 41.01499826 46.819958 44.57943193 50.91333008 48.14404297 C53.69846989 50.61222982 55.36153473 52.70875973 57 56 C58.32817472 56.67688562 59.66237202 57.3419927 61 58 C62.66135237 59.65277396 64.25752548 61.3717722 65.8125 63.125 C66.78032406 64.20265521 67.74913009 65.27942907 68.71875 66.35546875 C69.24082031 66.93731934 69.76289063 67.51916992 70.30078125 68.11865234 C73.43660379 71.59058459 76.62253333 75.01537092 79.8125 78.4375 C80.43423096 79.11119629 81.05596191 79.78489258 81.6965332 80.47900391 C84.3678756 83.34317522 86.97855105 85.98239016 90.01171875 88.47265625 C93.05571431 91.04712047 95.47904443 93.77902348 98.05859375 96.80078125 C101.67213077 100.89418436 105.61010088 104.67155268 109.5 108.5 C118.59972374 117.45596823 118.59972374 117.45596823 122.34765625 121.85546875 C125.30869127 125.30756864 128.47307787 128.52090304 131.71484375 131.70703125 C132.21976349 132.20407562 132.72468323 132.70112 133.24490356 133.21322632 C135.34429934 135.27607339 137.44665723 137.33570878 139.55786133 139.38647461 C141.1168656 140.90335003 142.66642837 142.42935887 144.21484375 143.95703125 C145.13386475 144.85397705 146.05288574 145.75092285 146.99975586 146.67504883 C149 149 149 149 149 152 C146.68804452 152.20225721 144.3765052 152.38650524 142.0625 152.5625 C140.77472656 152.66691406 139.48695313 152.77132812 138.16015625 152.87890625 C136.44021628 152.92379479 134.72013426 152.9633042 133 153 C131.71931641 153.08258057 130.43863281 153.16516113 129.11914062 153.25024414 C121.79611845 153.48708138 116.25188159 153.01745753 110.57820129 148.06523132 C107.70671439 145.26265906 105.02973067 142.31919269 102.375 139.3125 C101.2631232 138.11151073 100.14724708 136.9142113 99.02734375 135.72070312 C97.41530077 133.99963634 95.8078118 132.27595035 94.21827698 130.53405762 C90.6952493 126.67470435 87.03696949 123.303955 83 120 C81.899997 118.82570486 80.8290705 117.62222095 79.8125 116.375 C76.71422352 112.7242092 73.40585732 109.35918019 70 106 C66.01797569 102.06764369 62.21969533 98.06581132 58.58203125 93.80859375 C55.17770617 89.9167357 51.58933013 86.23173085 47.5 83.0625 C43.89232607 80.086169 41.018824 76.5595089 38 73 C36.77483758 71.55908571 35.54577382 70.12147791 34.3125 68.6875 C33.77238281 68.05199219 33.23226562 67.41648437 32.67578125 66.76171875 C31.01420696 64.90880813 31.01420696 64.90880813 28.79296875 63.39453125 C28.20128906 62.93433594 27.60960937 62.47414062 27 62 C27 61.34 27 60.68 27 60 C26.34 60 25.68 60 25 60 C23.80078125 58.77734375 23.80078125 58.77734375 22.3125 56.9375 C17.93401215 51.73921017 13.06251238 47.06246679 8.15551758 42.36889648 C7.52025146 41.74829346 6.88498535 41.12769043 6.23046875 40.48828125 C5.65707764 39.93696533 5.08368652 39.38564941 4.49291992 38.81762695 C0.88540386 34.42548352 0.71829217 30.04855577 0.5859375 24.51171875 C0.56657135 23.80852005 0.5472052 23.10532135 0.5272522 22.3808136 C0.46779817 20.14982981 0.42120951 17.91879346 0.375 15.6875 C0.33678863 14.16859814 0.29773508 12.64971722 0.2578125 11.13085938 C0.16212584 7.42076533 0.07796928 3.71051349 0 0 Z " fill="#1D7E9E" transform="translate(172,165)"/>
<path d="M0 0 C3.86325915 0.56090506 5.61382932 2.2488703 8.32202148 4.98144531 C9.58869911 6.24846283 9.58869911 6.24846283 10.88096619 7.54107666 C11.78520828 8.46080261 12.68945038 9.38052856 13.62109375 10.328125 C14.56681065 11.27944345 15.51319678 12.23009704 16.46022034 13.18011475 C18.95229745 15.68363794 21.43524693 18.19602646 23.91638184 20.71038818 C26.42911457 23.25367055 28.95021614 25.78862504 31.47070312 28.32421875 C35.96057574 32.84305304 40.44225954 37.3699069 44.92025757 41.9005127 C46.59677549 43.59294731 48.27871661 45.279332 49.96704102 46.95996094 C52.23348984 49.234303 54.36885191 51.59870638 56.5 54 C60.9034055 58.91037653 65.3996877 63.48213559 70.375 67.8125 C74.00078417 71.00607149 77.18733763 74.35211948 80.29296875 78.046875 C82.604713 80.69189131 85.13791994 83.07266878 87.71484375 85.45703125 C89 87 89 87 89 90 C81.76111378 90.89020616 74.66436564 91.18271497 67.375 91 C66.39015625 91.00644531 65.4053125 91.01289063 64.390625 91.01953125 C57.82241101 90.83562126 54.3808994 89.53206272 49.72949219 84.86279297 C49.15875977 84.24807129 48.58802734 83.63334961 48 83 C47.02308986 82.06008932 46.04295548 81.12351005 45.05859375 80.19140625 C44.19363281 79.32386719 43.32867187 78.45632813 42.4375 77.5625 C41.96771729 77.09150879 41.49793457 76.62051758 41.01391602 76.13525391 C38.37619426 73.46805786 35.86024397 70.73772342 33.4375 67.875 C30.07119736 63.91512225 26.26499574 60.56370499 22.33203125 57.17578125 C19.94294806 54.94677063 18.01703685 52.56402989 16 50 C15.236875 49.401875 14.47375 48.80375 13.6875 48.1875 C6.23961024 42.12526415 0.20352347 34.70919415 -1 25 C-1.09217893 22.38374498 -1.1424306 19.80209058 -1.125 17.1875 C-1.12306641 16.48625 -1.12113281 15.785 -1.11914062 15.0625 C-1.07677226 9.96888099 -0.71974474 5.03821315 0 0 Z " fill="#136788" transform="translate(173,227)"/>
<path d="M0 0 C0.12113557 29.96521224 -0.00970699 59.91412171 -0.5 89.875 C-0.51195782 90.60603313 -0.52391563 91.33706627 -0.53623581 92.09025192 C-0.68361832 101.06029503 -0.83817347 110.03020513 -1 119 C-1.33 119 -1.66 119 -2 119 C-2.92689087 111.84427112 -3.1930288 104.80091278 -3.28125 97.58984375 C-3.29965942 96.42296524 -3.31806885 95.25608673 -3.33703613 94.05384827 C-3.41514022 89.09612515 -3.48330194 84.13827754 -3.55224609 79.18041992 C-3.6042243 75.54599864 -3.66136528 71.91168305 -3.71875 68.27734375 C-3.73232544 67.16568344 -3.74590088 66.05402313 -3.7598877 64.90867615 C-3.83083881 60.44612896 -3.92080121 56.05838311 -4.52734375 51.63305664 C-4.97634381 48.18183256 -5.02246102 45.06246627 -4.84375 41.59375 C-4.79089844 40.43746094 -4.73804688 39.28117187 -4.68359375 38.08984375 C-4.56119792 35.69661458 -4.43880208 33.30338542 -4.31640625 30.91015625 C-4.0352036 24.75799099 -4.09141651 19.08539641 -5 13 C-4.5625 9.5 -4.5625 9.5 -4 7 C-7.78870766 6.68722985 -7.78870766 6.68722985 -10 8.0625 C-12.48509394 9.22738778 -13.43100599 8.68506507 -16 8 C-16.66 8.66 -17.32 9.32 -18 10 C-18.66 10.33 -19.32 10.66 -20 11 C-20.35412344 12.32796291 -20.68521554 13.66216607 -21 15 C-21.66 15.99 -22.32 16.98 -23 18 C-23.66 18 -24.32 18 -25 18 C-25 18.66 -25 19.32 -25 20 C-24.34 20.33 -23.68 20.66 -23 21 C-27.75 22.125 -27.75 22.125 -30 21 C-30 24.76687864 -29.76462683 25.91190305 -28 29 C-30 29 -32 29 -34 29 C-36.18777466 30.9375006 -36.18777466 30.9375006 -38 33 C-38.495 32.505 -38.495 32.505 -39 32 C-40.12935196 33.41319977 -41.25330626 34.83071405 -42.375 36.25 C-43.00148438 37.03890625 -43.62796875 37.8278125 -44.2734375 38.640625 C-46.03750513 40.87195261 -46.03750513 40.87195261 -46.94921875 43.16796875 C-48.36972277 45.64460959 -49.80060538 46.06229859 -52.4375 47.0625 C-55.61838912 48.28350027 -57.8703915 49.28426071 -60 52 C-60.12914795 52.64549805 -60.2582959 53.29099609 -60.39135742 53.95605469 C-61 56 -61 56 -64.015625 58.33203125 C-67.37204448 61.52103077 -67.51017181 64.28892569 -67.734375 68.82421875 C-67.76880789 71.4450915 -67.77304737 74.06650241 -67.75 76.6875 C-67.75190136 79.31676891 -67.77288787 81.94496277 -67.796875 84.57421875 C-67.79010742 85.73526123 -67.78333984 86.89630371 -67.77636719 88.0925293 C-68 91 -68 91 -70 94 C-70.04971951 89.42848262 -70.08586976 84.85712532 -70.10986328 80.28540039 C-70.11987381 78.73263809 -70.13348634 77.17989442 -70.15087891 75.62719727 C-70.17534652 73.38553245 -70.18653268 71.14411851 -70.1953125 68.90234375 C-70.20563507 68.21663803 -70.21595764 67.53093231 -70.22659302 66.82444763 C-70.2278744 61.22466216 -69.69554816 56.22460226 -66.23168945 51.67993164 C-65.18307739 50.68014282 -65.18307739 50.68014282 -64.11328125 49.66015625 C-63.33919922 48.90669922 -62.56511719 48.15324219 -61.76757812 47.37695312 C-60.95740234 46.61318359 -60.14722656 45.84941406 -59.3125 45.0625 C-57.72285995 43.53504636 -56.13559207 42.00511989 -54.55078125 40.47265625 C-53.78032471 39.72838379 -53.00986816 38.98411133 -52.21606445 38.21728516 C-49.50558353 35.50531118 -46.99595342 32.65899641 -44.50317383 29.74780273 C-42.64263764 27.58447992 -40.69477816 25.52739117 -38.6875 23.5 C-38.03136719 22.8296875 -37.37523437 22.159375 -36.69921875 21.46875 C-35 20 -35 20 -33 20 C-32.34 18.68 -31.68 17.36 -31 16 C-30.34 16 -29.68 16 -29 16 C-29 15.34 -29 14.68 -29 14 C-27.12555165 12.11159794 -25.10518203 10.45121346 -23.06640625 8.7421875 C-20.91307415 6.97669021 -20.91307415 6.97669021 -18.75 4.75 C-13.25931396 1.25592707 -6.44705729 0 0 0 Z " fill="#39B3CC" transform="translate(341,146)"/>
<path d="M0 0 C3.66591076 0.77822211 5.17260687 1.86655033 7.75 4.625 C10.41925821 7.40815977 13.11375819 10.01504088 16.0625 12.5 C19.49128685 15.44567011 22.41690288 18.62666963 25.32421875 22.08203125 C26.93931204 23.93054129 28.64115238 25.57985948 30.4375 27.25 C33 30 33 30 33 34 C31.02 34.495 31.02 34.495 29 35 C28.814375 34.05125 28.62875 33.1025 28.4375 32.125 C27.26599195 28.61628301 27.26599195 28.61628301 23.375 27.625 C21.704375 27.315625 21.704375 27.315625 20 27 C20.0825 26.236875 20.165 25.47375 20.25 24.6875 C20.28472968 21.89435951 20.28472968 21.89435951 18.1875 20.25 C15.94075658 18.87129879 15.94075658 18.87129879 13 18 C13.33 17.01 13.66 16.02 14 15 C13.34 15 12.68 15 12 15 C12 14.01 12 13.02 12 12 C10.0085944 11.61866701 8.00720923 11.28674418 6 11 C4.43413992 12.56586008 4.38905307 14.4251488 3.9375 16.5625 C3.76089844 17.38878906 3.58429688 18.21507812 3.40234375 19.06640625 C3.26957031 19.70449219 3.13679687 20.34257812 3 21 C3.66 21.33 4.32 21.66 5 22 C4.67 25.3 4.34 28.6 4 32 C4.66 32 5.32 32 6 32 C6 33.32 6 34.64 6 36 C6.928125 35.7215625 6.928125 35.7215625 7.875 35.4375 C10 35 10 35 12 36 C11.67 37.32 11.34 38.64 11 40 C11.66 40.433125 12.32 40.86625 13 41.3125 C13.66 41.869375 14.32 42.42625 15 43 C15 43.99 15 44.98 15 46 C15.639375 46.268125 16.27875 46.53625 16.9375 46.8125 C19 48 19 48 20 51 C16.7954182 50.41829591 15.13806819 49.52125979 12.8359375 47.234375 C12.27132812 46.67363281 11.70671875 46.11289063 11.125 45.53515625 C10.5475 44.94605469 9.97 44.35695312 9.375 43.75 C8.49714844 42.88955078 8.49714844 42.88955078 7.6015625 42.01171875 C7.03953125 41.44582031 6.4775 40.87992188 5.8984375 40.296875 C5.38974121 39.78479492 4.88104492 39.27271484 4.35693359 38.74511719 C0.91877744 34.32339351 0.71669171 29.98160307 0.5859375 24.51171875 C0.56657135 23.80852005 0.5472052 23.10532135 0.5272522 22.3808136 C0.46779817 20.14982981 0.42120951 17.91879346 0.375 15.6875 C0.33678863 14.16859814 0.29773508 12.64971722 0.2578125 11.13085938 C0.16212584 7.42076533 0.07796928 3.71051349 0 0 Z " fill="#58D6EB" transform="translate(172,165)"/>
<path d="M0 0 C-1.55603771 3.81936528 -3.95604931 6.26044438 -7 9 C-7.66 9 -8.32 9 -9 9 C-8.71125 9.66 -8.4225 10.32 -8.125 11 C-7.92491266 15.80209618 -11.03507983 18.44915513 -14 22 C-14.50273437 22.72058594 -15.00546875 23.44117188 -15.5234375 24.18359375 C-17.59763726 26.7351887 -19.90544585 27.00974267 -23 28 C-26.69219547 30.27532184 -26.69219547 30.27532184 -28.44824219 33.98706055 C-29 36 -29 36 -32.015625 38.33203125 C-35.37204448 41.52103077 -35.51017181 44.28892569 -35.734375 48.82421875 C-35.76880789 51.4450915 -35.77304737 54.06650241 -35.75 56.6875 C-35.75190136 59.31676891 -35.77288787 61.94496277 -35.796875 64.57421875 C-35.79010742 65.73526123 -35.78333984 66.89630371 -35.77636719 68.0925293 C-36 71 -36 71 -38 74 C-38.04971951 69.42848262 -38.08586976 64.85712532 -38.10986328 60.28540039 C-38.11987381 58.73263809 -38.13348634 57.17989442 -38.15087891 55.62719727 C-38.17534652 53.38553245 -38.18653268 51.14411851 -38.1953125 48.90234375 C-38.20563507 48.21663803 -38.21595764 47.53093231 -38.22659302 46.82444763 C-38.2278744 41.22466216 -37.69554816 36.22460226 -34.23168945 31.67993164 C-33.18307739 30.68014282 -33.18307739 30.68014282 -32.11328125 29.66015625 C-31.33919922 28.90669922 -30.56511719 28.15324219 -29.76757812 27.37695312 C-28.95740234 26.61318359 -28.14722656 25.84941406 -27.3125 25.0625 C-25.72285995 23.53504636 -24.13559207 22.00511989 -22.55078125 20.47265625 C-21.78040527 19.72838379 -21.0100293 18.98411133 -20.21630859 18.21728516 C-17.50500573 15.50478763 -14.99261626 12.65938721 -12.4987793 9.74780273 C-10.6520042 7.5941844 -8.73160548 5.52993732 -6.75 3.5 C-6.10546875 2.8296875 -5.4609375 2.159375 -4.796875 1.46875 C-3 0 -3 0 0 0 Z " fill="#31B7D9" transform="translate(309,166)"/>
<path d="M0 0 C3.39283667 0.585122 5.0431906 1.66508176 7.4675293 4.0793457 C8.1246843 4.72704422 8.78183929 5.37474274 9.45890808 6.04206848 C10.1569606 6.7461937 10.85501312 7.45031891 11.57421875 8.17578125 C12.29865677 8.89734909 13.02309479 9.61891693 13.76948547 10.36235046 C15.29866547 11.88948956 16.82406576 13.42042141 18.34594727 14.95483398 C20.67856456 17.30350307 23.02672661 19.63576391 25.37695312 21.96679688 C26.86033787 23.45216404 28.34279172 24.93846156 29.82421875 26.42578125 C30.52834396 27.12383377 31.23246918 27.82188629 31.95793152 28.54109192 C32.60563004 29.19824692 33.25332855 29.85540192 33.9206543 30.5324707 C34.49261032 31.10681351 35.06456635 31.68115631 35.65385437 32.27290344 C37.13923725 34.17864053 37.59280032 35.63884793 38 38 C30.25 37.25 30.25 37.25 28 35 C27.957279 33.33388095 27.95936168 31.66617115 28 30 C27.67 29.01 27.34 28.02 27 27 C25.35 26.67 23.7 26.34 22 26 C22 26.99 22 27.98 22 29 C21.01 28.67 20.02 28.34 19 28 C19 26.68 19 25.36 19 24 C19.66 24 20.32 24 21 24 C18.94766315 21.7522025 17.99332739 20.9977758 15 20 C14.690625 19.195625 14.38125 18.39125 14.0625 17.5625 C13.21269301 14.94479788 13.21269301 14.94479788 11.25 13.5625 C8.05264724 12.76316181 5.98787111 13.77768909 3 15 C2.67 17.64 2.34 20.28 2 23 C1.34 23 0.68 23 0 23 C-0.72526532 15.15597666 -1.21074074 7.80255144 0 0 Z " fill="#2087A8" transform="translate(173,227)"/>
<path d="M0 0 C1.32 0 2.64 0 4 0 C4.33 0.99 4.66 1.98 5 3 C4.34 3.66 3.68 4.32 3 5 C2.814375 5.86625 2.62875 6.7325 2.4375 7.625 C0.54665131 12.06438389 -2.33022593 14.23263453 -6.00390625 17.265625 C-8.64760531 19.56269424 -8.96090369 20.44528967 -9.20874023 23.96166992 C-9.29749986 27.31174907 -9.36748875 30.66001869 -9.4050293 34.01098633 C-9.42654653 35.45328813 -9.46057609 36.89546156 -9.50756836 38.3371582 C-10.09718484 48.05445082 -10.09718484 48.05445082 -5.97265625 56.48828125 C-4.99167969 57.31714844 -4.01070313 58.14601562 -3 59 C-6 59 -6 59 -7.57250977 57.86645508 C-12.59507925 52.51141119 -12.92357976 47.83786314 -12.9375 40.6875 C-12.96650391 39.70587891 -12.99550781 38.72425781 -13.02539062 37.71289062 C-13.40686645 20.24592182 -13.40686645 20.24592182 -10 14 C-9.01904252 12.98131338 -8.02297922 11.97648017 -7 11 C-7 10.34 -7 9.68 -7 9 C-5.02 8.34 -3.04 7.68 -1 7 C-0.67 4.69 -0.34 2.38 0 0 Z " fill="#2E94B4" transform="translate(306,192)"/>
<path d="M0 0 C0.33 0 0.66 0 1 0 C1 8.91 1 17.82 1 27 C1.66 27 2.32 27 3 27 C3 48.45 3 69.9 3 92 C2.67 92 2.34 92 2 92 C1.07310913 84.84427112 0.8069712 77.80091278 0.71875 70.58984375 C0.70034058 69.42296524 0.68193115 68.25608673 0.66296387 67.05384827 C0.58485978 62.09612515 0.51669806 57.13827754 0.44775391 52.18041992 C0.3957757 48.54599864 0.33863472 44.91168305 0.28125 41.27734375 C0.26767456 40.16568344 0.25409912 39.05402313 0.2401123 37.90867615 C0.16883271 33.42546885 0.07406335 29.015675 -0.52514648 24.56860352 C-0.93728879 21.47128523 -1.05365901 18.73171567 -0.87890625 15.625 C-0.83056641 14.70332031 -0.78222656 13.78164062 -0.73242188 12.83203125 C-0.67634766 11.89746094 -0.62027344 10.96289062 -0.5625 10 C-0.51029297 9.03449219 -0.45808594 8.06898438 -0.40429688 7.07421875 C-0.27586364 4.7157175 -0.14096811 2.35777955 0 0 Z " fill="#3E94B4" transform="translate(337,173)"/>
<path d="M0 0 C2.34057569 1.99197931 4.67250976 3.99280658 7 6 C8.10021484 6.93972656 8.10021484 6.93972656 9.22265625 7.8984375 C13.62849086 11.72236943 17.60900957 15.64829411 21.359375 20.1171875 C22.9609409 21.95517504 24.65353337 23.59107776 26.4375 25.25 C29 28 29 28 29 32 C27.02 32.495 27.02 32.495 25 33 C24.814375 32.05125 24.62875 31.1025 24.4375 30.125 C23.26599195 26.61628301 23.26599195 26.61628301 19.375 25.625 C17.704375 25.315625 17.704375 25.315625 16 25 C16.0825 24.236875 16.165 23.47375 16.25 22.6875 C16.28472968 19.89435951 16.28472968 19.89435951 14.1875 18.25 C11.94075658 16.87129879 11.94075658 16.87129879 9 16 C9.33 15.01 9.66 14.02 10 13 C9.34 13 8.68 13 8 13 C8 12.01 8 11.02 8 10 C7.01 9.67 6.02 9.34 5 9 C4.34 8.01 3.68 7.02 3 6 C2.01 6.66 1.02 7.32 0 8 C0.2784375 7.13375 0.2784375 7.13375 0.5625 6.25 C1.04372783 3.77511403 0.67787733 2.39014524 0 0 Z " fill="#53C0D1" transform="translate(176,167)"/>
<path d="M0 0 C-1.55603771 3.81936528 -3.95604931 6.26044438 -7 9 C-7.66 9 -8.32 9 -9 9 C-8.71125 9.66 -8.4225 10.32 -8.125 11 C-7.92491266 15.80209618 -11.03507983 18.44915513 -14 22 C-14.50660156 22.73605469 -15.01320313 23.47210938 -15.53515625 24.23046875 C-16.26025391 25.10638672 -16.26025391 25.10638672 -17 26 C-19.6875 26.25 -19.6875 26.25 -22 26 C-20.68 25.34 -19.36 24.68 -18 24 C-18 23.01 -18 22.02 -18 21 C-19.65 21.33 -21.3 21.66 -23 22 C-19.11880229 16.29235631 -14.6478701 11.39982518 -9.8125 6.5 C-9.1942334 5.86433105 -8.5759668 5.22866211 -7.93896484 4.57373047 C-7.34680176 3.98221191 -6.75463867 3.39069336 -6.14453125 2.78125 C-5.61190674 2.24564453 -5.07928223 1.71003906 -4.53051758 1.15820312 C-3 0 -3 0 0 0 Z " fill="#31BDDC" transform="translate(309,166)"/>
<path d="M0 0 C1.32 0 2.64 0 4 0 C5.30859375 1.609375 5.30859375 1.609375 6.4375 3.75 C8.53216495 7.40125083 10.60939873 9.45704905 14 12 C14.66 13.0725 15.32 14.145 16 15.25 C17.14919408 16.91169269 17.14919408 16.91169269 19 18 C22.47533752 18.38091754 25.74583858 18.31273793 29.234375 18.11328125 C30.60335937 18.05720703 30.60335937 18.05720703 32 18 C32.33 18.33 32.66 18.66 33 19 C35.18292774 19.23481693 37.37203174 19.41363323 39.5625 19.5625 C40.76003906 19.64628906 41.95757812 19.73007812 43.19140625 19.81640625 C44.58166016 19.90728516 44.58166016 19.90728516 46 20 C45.35546875 19.22269531 44.7109375 18.44539063 44.046875 17.64453125 C42.17972045 15.23219608 41.43614173 13.94395666 41 11 C43 11 43 11 45.625 13.3125 C48 16 48 16 48 19 C49.32 19.33 50.64 19.66 52 20 C52.33 19.34 52.66 18.68 53 18 C53 18.99 53 19.98 53 21 C45.76111378 21.89020616 38.66436564 22.18271497 31.375 22 C30.39015625 22.00644531 29.4053125 22.01289063 28.390625 22.01953125 C21.83561825 21.83599106 18.39702428 20.54497121 13.75585938 15.88476562 C13.17642578 15.26279297 12.59699219 14.64082031 12 14 C10.95329039 13.00092508 9.90281738 12.00576978 8.84765625 11.015625 C7.92855469 10.10296875 7.00945312 9.1903125 6.0625 8.25 C5.12535156 7.32703125 4.18820313 6.4040625 3.22265625 5.453125 C1 3 1 3 0 0 Z " fill="#0C3B55" transform="translate(209,296)"/>
<path d="M0 0 C5.9761801 1.11420307 9.02353162 2.13987198 13 7 C13.680625 8.03125 14.36125 9.0625 15.0625 10.125 C16.89002049 12.83680459 18.40631647 14.12181537 21 16 C21.33 16.99 21.66 17.98 22 19 C22.66 19 23.32 19 24 19 C25.40234375 20.42578125 25.40234375 20.42578125 26.9375 22.3125 C31.59868109 28.31047517 31.59868109 28.31047517 38.26171875 31.4140625 C39.06222656 31.48367188 39.86273438 31.55328125 40.6875 31.625 C41.49574219 31.69976562 42.30398438 31.77453125 43.13671875 31.8515625 C43.75160156 31.90054687 44.36648438 31.94953125 45 32 C45 32.33 45 32.66 45 33 C40.34123055 33.95864662 35.56299178 34.57043999 31.32952881 31.97644043 C27.03700649 28.53802538 23.38413892 24.42923981 19.6875 20.375 C18.55178619 19.17038135 17.41313046 17.96852924 16.27148438 16.76953125 C14.62602832 15.04061069 12.98332512 13.30995641 11.35421753 11.56561279 C7.77992147 7.74766811 4.04210561 4.32467561 0 1 C0 0.67 0 0.34 0 0 Z " fill="#19445F" transform="translate(255,284)"/>
<path d="M0 0 C5.27856867 2.71799063 9.29074902 6.76808684 13.5625 10.8125 C14.31724609 11.51181641 15.07199219 12.21113281 15.84960938 12.93164062 C20.68083478 17.48193134 24.86112671 21.58338014 27 28 C23.63347283 27.39883443 21.54372667 26.28935401 19 24 C18.30251417 22.68252676 17.63040043 21.35085807 17 20 C16.34 19.67 15.68 19.34 15 19 C15 18.34 15 17.68 15 17 C14.1028125 16.9071875 14.1028125 16.9071875 13.1875 16.8125 C10.13636816 15.67922246 9.6120999 13.75400399 8 11 C5.94996045 9.80767387 5.94996045 9.80767387 4 9 C3.33744759 7.67489518 2.69130398 6.34144848 2.0625 5 C1.04573661 2.85059376 1.04573661 2.85059376 -1 1 C-0.67 0.67 -0.34 0.34 0 0 Z " fill="#32A4C0" transform="translate(206,199)"/>
<path d="M0 0 C4.16881496 1.19108999 6.0599557 3.02903355 8.68359375 6.42578125 C10.15477537 8.28033531 10.15477537 8.28033531 13 10.5 C16.11157653 13.09298044 18.45064209 15.86232872 21 19 C23.59478266 21.72784843 26.20170381 24.16191747 29.1875 26.4375 C32.24094404 29.21952679 33.07734063 31.03256473 34 35 C27.14207249 29.38629648 20.98374096 23.09564112 14.75 16.8125 C13.65127684 15.70875022 12.55232024 14.60523277 11.453125 13.50195312 C9.44484537 11.48555988 7.4378744 9.46788526 5.43261719 7.44848633 C4.03367275 6.0404159 2.62028434 4.6457506 1.16894531 3.29174805 C0 2 0 2 0 0 Z " fill="#2B7993" transform="translate(213,267)"/>
<path d="M0 0 C0.66 0 1.32 0 2 0 C2 12.54 2 25.08 2 38 C1.01 38 0.02 38 -1 38 C-1.02487594 33.71330142 -1.04294275 29.42664205 -1.05493164 25.13989258 C-1.05993417 23.68415596 -1.0667383 22.22842429 -1.07543945 20.77270508 C-1.087685 18.67007212 -1.09326923 16.56750609 -1.09765625 14.46484375 C-1.10289307 13.202771 -1.10812988 11.94069824 -1.11352539 10.64038086 C-1.00072599 7.02328018 -0.58112682 3.56920449 0 0 Z " fill="#62BFD2" transform="translate(339,162)"/>
<path d="M0 0 C2.56616632 3.84924948 2.55097676 6.4349304 3 11 C3.33 11 3.66 11 4 11 C4.07408587 15.09333905 4.1285704 19.18641933 4.16479492 23.28027344 C4.17989358 24.67324622 4.20037444 26.06617138 4.22631836 27.45898438 C4.26265122 29.45942885 4.27811192 31.46021827 4.29296875 33.4609375 C4.31653442 35.26763916 4.31653442 35.26763916 4.34057617 37.11083984 C4.22818604 38.0642627 4.1157959 39.01768555 4 40 C3.01 40.66 2.02 41.32 1 42 C-0.13702786 37.47942904 -0.12814634 33.04660217 -0.09765625 28.41796875 C-0.09553383 27.19670036 -0.09553383 27.19670036 -0.09336853 25.95075989 C-0.08779317 23.36296844 -0.07524524 20.77526508 -0.0625 18.1875 C-0.05748181 16.42773563 -0.05291946 14.66796989 -0.04882812 12.90820312 C-0.03783181 8.60543506 -0.02058421 4.30273244 0 0 Z " fill="#1D4E6D" transform="translate(337,275)"/>
<path d="M0 0 C3.02459059 2.19970225 5.53478351 4.53320842 7.9375 7.375 C13.54809456 13.96243915 19.84796196 19.92475578 26 26 C24.171875 26.64453125 24.171875 26.64453125 22 27 C19.25 24.6875 19.25 24.6875 17 22 C17 21.34 17 20.68 17 20 C16.34 20 15.68 20 15 20 C13.66796875 18.64453125 13.66796875 18.64453125 12.1875 16.8125 C7.27763318 10.91273083 7.27763318 10.91273083 1.1875 6.3125 C0.465625 5.879375 -0.25625 5.44625 -1 5 C-1 4.34 -1 3.68 -1 3 C-1.99 2.67 -2.98 2.34 -4 2 C-3.34 1.67 -2.68 1.34 -2 1 C-1.34 1.33 -0.68 1.66 0 2 C0 1.34 0 0.68 0 0 Z " fill="#173C56" transform="translate(286,279)"/>
<path d="M0 0 C3.53149946 0.32104541 5.55774608 0.65085217 8.375 2.875 C10 5 10 5 10 8 C10.639375 8.2475 11.27875 8.495 11.9375 8.75 C14 10 14 10 14.75 12.125 C14.87375 13.053125 14.87375 13.053125 15 14 C15.66 14 16.32 14 17 14 C17.61875 14.78375 18.2375 15.5675 18.875 16.375 C20.74029814 19.07755091 20.74029814 19.07755091 23.1875 20 C23.785625 20.33 24.38375 20.66 25 21 C25.75 23.625 25.75 23.625 26 26 C21.21186217 21.93930134 16.50089976 17.80714429 11.875 13.5625 C11.28074219 13.02818359 10.68648438 12.49386719 10.07421875 11.94335938 C6.09014857 8.28030148 3.01388535 4.49808172 0 0 Z " fill="#133B58" transform="translate(294,276)"/>
<path d="M0 0 C1.32 0 2.64 0 4 0 C4 5.28 4 10.56 4 16 C3.34 16 2.68 16 2 16 C2 18.31 2 20.62 2 23 C-0.87937337 20.12062663 -0.84106627 16.90110066 -1 13 C-0.5625 9.5 -0.5625 9.5 0 7 C-3.89459074 6.78918149 -3.89459074 6.78918149 -7 8 C-6.3125 5.5625 -6.3125 5.5625 -5 3 C-2.375 2.1875 -2.375 2.1875 0 2 C0 1.34 0 0.68 0 0 Z " fill="#43B4D3" transform="translate(337,146)"/>
<path d="M0 0 C2.475 0.99 2.475 0.99 5 2 C4.86287598 2.53665283 4.72575195 3.07330566 4.58447266 3.6262207 C2.30685658 14.01210922 2.54109064 24.60700698 2.375 35.1875 C2.33675146 37.20899994 2.29769592 39.23048478 2.2578125 41.25195312 C2.16256215 46.16784388 2.07826199 51.08381064 2 56 C1.67 56 1.34 56 1 56 C1 38.84 1 21.68 1 4 C-0.32 3.67 -1.64 3.34 -3 3 C-2.01 2.01 -1.02 1.02 0 0 Z " fill="#4AA9C8" transform="translate(315,190)"/>
<path d="M0 0 C4.10144828 3.40332943 8.04489583 6.91745916 11.875 10.625 C13.01582031 11.72714844 13.01582031 11.72714844 14.1796875 12.8515625 C15.99768558 14.99726839 16.61480109 16.25390454 17 19 C9.25 18.25 9.25 18.25 7 16 C6.957279 14.33388095 6.95936168 12.66617115 7 11 C6.67 10.01 6.34 9.02 6 8 C4.35 7.67 2.7 7.34 1 7 C0.67 4.69 0.34 2.38 0 0 Z " fill="#197D9E" transform="translate(194,246)"/>
<path d="M0 0 C0.33 0.99 0.66 1.98 1 3 C0.34 3 -0.32 3 -1 3 C-1 3.66 -1 4.32 -1 5 C-0.34 5.33 0.32 5.66 1 6 C-3.75 7.125 -3.75 7.125 -6 6 C-6 9.76687864 -5.76462683 10.91190305 -4 14 C-6 14 -8 14 -10 14 C-12.18777466 15.9375006 -12.18777466 15.9375006 -14 18 C-14.99 17.34 -15.98 16.68 -17 16 C-17 15.34 -17 14.68 -17 14 C-15.06469234 12.17270951 -13.00952377 10.53104622 -10.9453125 8.8515625 C-8.91170148 7.13180249 -8.91170148 7.13180249 -7.96875 4.8828125 C-6.29081947 1.62167333 -3.32433664 1.23123579 0 0 Z " fill="#33C8E6" transform="translate(317,161)"/>
<path d="M0 0 C2 3 2 3 3 6 C4.87387216 6.80212628 4.87387216 6.80212628 7.0625 7.1875 C7.79597656 7.34605469 8.52945313 7.50460938 9.28515625 7.66796875 C9.85105469 7.77753906 10.41695312 7.88710937 11 8 C10.67 9.32 10.34 10.64 10 12 C10.99 12.6496875 10.99 12.6496875 12 13.3125 C12.66 13.869375 13.32 14.42625 14 15 C14 15.99 14 16.98 14 18 C14.639375 18.268125 15.27875 18.53625 15.9375 18.8125 C18 20 18 20 19 23 C15.7954182 22.41829591 14.13806819 21.52125979 11.8359375 19.234375 C10.98902344 18.39326172 10.98902344 18.39326172 10.125 17.53515625 C9.5475 16.94605469 8.97 16.35695312 8.375 15.75 C7.78976563 15.17636719 7.20453125 14.60273438 6.6015625 14.01171875 C2.18504146 9.56480881 0 6.47815199 0 0 Z " fill="#3BADCC" transform="translate(173,193)"/>
<path d="M0 0 C6.88305109 2.16182471 11.18333172 7.90887769 16 13 C16.76054687 13.79148438 17.52109375 14.58296875 18.3046875 15.3984375 C21.94549636 19.3316808 21.94549636 19.3316808 23 21 C22.67 21.99 22.34 22.98 22 24 C18.86050859 20.90984779 15.72756243 17.81325304 12.60058594 14.71044922 C11.5353174 13.65525491 10.46826303 12.60186036 9.39941406 11.55029297 C7.86573784 10.04080273 6.33854432 8.52501301 4.8125 7.0078125 C3.89082031 6.09660645 2.96914062 5.18540039 2.01953125 4.24658203 C0 2 0 2 0 0 Z " fill="#42A9C9" transform="translate(234,228)"/>
<path d="M0 0 C0.33 0 0.66 0 1 0 C0.99887207 0.87213135 0.99774414 1.7442627 0.99658203 2.64282227 C1.00656148 5.90718616 1.04329084 9.16904884 1.09765625 12.43286133 C1.11572327 13.83999183 1.12340168 15.24729837 1.12011719 16.65454102 C0.86844377 26.20853272 0.86844377 26.20853272 5.0546875 34.46484375 C6.02664063 35.30144531 6.99859375 36.13804687 8 37 C5 37 5 37 3.4296875 35.87304688 C-1.63145073 30.48763973 -1.95394431 25.69389891 -2 18.5 C-2.03738281 17.49324219 -2.07476562 16.48648438 -2.11328125 15.44921875 C-2.25212285 9.8736323 -1.88944693 5.25502428 0 0 Z " fill="#3193B7" transform="translate(295,214)"/>
<path d="M0 0 C3.62613199 0.56959153 5.25517741 1.92374534 7.75 4.5625 C8.36359375 5.20316406 8.9771875 5.84382812 9.609375 6.50390625 C10.06828125 6.99761719 10.5271875 7.49132812 11 8 C10.01 8.495 10.01 8.495 9 9 C8.01 8.67 7.02 8.34 6 8 C5.67 8.66 5.34 9.32 5 10 C3.68 10 2.36 10 1 10 C1 12.97 1 15.94 1 19 C0.67 19 0.34 19 0 19 C-0.8931507 12.41816638 -0.95494281 6.57849492 0 0 Z " fill="#25829F" transform="translate(173,227)"/>
<path d="M0 0 C3.48670834 1.1094072 6.77484237 2.26337666 10 4 C10 4.99 10 5.98 10 7 C10.66 7 11.32 7 12 7 C12 7.99 12 8.98 12 10 C12.598125 10.0825 13.19625 10.165 13.8125 10.25 C16.5966296 11.20455872 17.43311142 12.57132271 19 15 C17.22949219 15.69677734 17.22949219 15.69677734 15 16 C13.16894531 14.75244141 13.16894531 14.75244141 11.328125 12.8515625 C10.66425781 12.17609375 10.00039062 11.500625 9.31640625 10.8046875 C8.63449219 10.08539063 7.95257813 9.36609375 7.25 8.625 C6.55261719 7.9134375 5.85523438 7.201875 5.13671875 6.46875 C0 1.18124694 0 1.18124694 0 0 Z " fill="#196787" transform="translate(237,265)"/>
<path d="M0 0 C9.0066983 7.55316774 9.0066983 7.55316774 12 11 C12 12.32 12 13.64 12 15 C10.68 15.33 9.36 15.66 8 16 C7.814375 15.05125 7.62875 14.1025 7.4375 13.125 C6.26599195 9.61628301 6.26599195 9.61628301 2.375 8.625 C1.26125 8.41875 0.1475 8.2125 -1 8 C-0.67 6.68 -0.34 5.36 0 4 C0.66 4 1.32 4 2 4 C1.34 2.68 0.68 1.36 0 0 Z " fill="#3FB7D0" transform="translate(193,184)"/>
<path d="M0 0 C0.33 0 0.66 0 1 0 C1 8.91 1 17.82 1 27 C1.66 27 2.32 27 3 27 C3 32.28 3 37.56 3 43 C2.34 43 1.68 43 1 43 C-0.71651401 28.48841825 -1.10256653 14.57175764 0 0 Z " fill="#3CA9C5" transform="translate(337,173)"/>
<path d="M0 0 C5.93503276 1.10653153 9.10456939 2.10288724 13 7 C14.8125 10.3125 14.8125 10.3125 16 13 C11.51556505 12.14421026 8.97273379 9.56082611 5.75 6.5 C5.19570313 5.98824219 4.64140625 5.47648437 4.0703125 4.94921875 C2.68841168 3.65921773 1.34095108 2.33251743 0 1 C0 0.67 0 0.34 0 0 Z " fill="#194B67" transform="translate(255,284)"/>
<path d="M0 0 C0.33 0.99 0.66 1.98 1 3 C-3.455 4.485 -3.455 4.485 -8 6 C-8.33 8.64 -8.66 11.28 -9 14 C-9.66 14 -10.32 14 -11 14 C-10.67 9.71 -10.34 5.42 -10 1 C-4.375 -1.25 -4.375 -1.25 0 0 Z " fill="#269ABD" transform="translate(184,236)"/>
<path d="M0 0 C0.66 0.33 1.32 0.66 2 1 C2.4140625 3.109375 2.4140625 3.109375 2.625 5.75 C2.69976562 6.61109375 2.77453125 7.4721875 2.8515625 8.359375 C2.90054687 9.23078125 2.94953125 10.1021875 3 11 C3.06960938 11.89203125 3.13921875 12.7840625 3.2109375 13.703125 C3.14132812 14.46109375 3.07171875 15.2190625 3 16 C-0.22791555 18.1519437 -1.28400809 18.20086443 -5 18 C-5 16.35 -5 14.7 -5 13 C-2.525 14.485 -2.525 14.485 0 16 C0 10.72 0 5.44 0 0 Z " fill="#116485" transform="translate(317,250)"/>
<path d="M0 0 C8.68572311 7.28399258 8.68572311 7.28399258 12 11 C12 11.99 12 12.98 12 14 C8.88815884 12.57724379 6.37515156 10.87998769 3.75 8.6875 C3.04359375 8.11386719 2.3371875 7.54023438 1.609375 6.94921875 C0 5 0 5 -0.234375 2.26953125 C-0.15703125 1.52058594 -0.0796875 0.77164062 0 0 Z " fill="#1C6079" transform="translate(274,267)"/>
<path d="M0 0 C0.33 0.99 0.66 1.98 1 3 C-0.36328125 5.04296875 -0.36328125 5.04296875 -2.3125 7.1875 C-2.94800781 7.90292969 -3.58351563 8.61835938 -4.23828125 9.35546875 C-6 11 -6 11 -8 11 C-8.433125 12.2065625 -8.433125 12.2065625 -8.875 13.4375 C-10 16 -10 16 -12 17 C-12.33 16.01 -12.66 15.02 -13 14 C-11.77734375 12.16796875 -11.77734375 12.16796875 -9.9375 10.1875 C-9.29554688 9.49011719 -8.65359375 8.79273438 -7.9921875 8.07421875 C-5.36623357 5.34013731 -2.71357657 2.64739178 0 0 Z " fill="#33A9C2" transform="translate(285,188)"/>
<path d="M0 0 C0.66 0.33 1.32 0.66 2 1 C2 5 2 5 1.51977539 6.80175781 C0.78109303 9.92580477 0.77558946 12.96516748 0.68359375 16.171875 C0.66281265 16.8542926 0.64203156 17.53671021 0.62062073 18.23980713 C0.55547948 20.40977356 0.49640596 22.57985624 0.4375 24.75 C0.39428103 26.22527221 0.35066568 27.70053287 0.30664062 29.17578125 C0.19983482 32.78373166 0.09846847 36.39181133 0 40 C-0.33 40 -0.66 40 -1 40 C-1.02467759 34.62484067 -1.04284928 29.24971415 -1.05493164 23.87451172 C-1.05996737 22.04507879 -1.06679627 20.21564991 -1.07543945 18.38623047 C-1.08753824 15.76008102 -1.09323583 13.13398468 -1.09765625 10.5078125 C-1.10281754 9.68693146 -1.10797882 8.86605042 -1.11329651 8.02029419 C-1.11387171 2.22774341 -1.11387171 2.22774341 0 0 Z " fill="#2394B5" transform="translate(318,201)"/>
<path d="M0 0 C5.41342681 1.14514798 7.9342948 2.34012809 11 7 C10.34 7 9.68 7 9 7 C9 7.66 9 8.32 9 9 C8.01 8.67 7.02 8.34 6 8 C5.67 7.01 5.34 6.02 5 5 C4.01 5.495 4.01 5.495 3 6 C2.67 5.34 2.34 4.68 2 4 C0.02 4.99 0.02 4.99 -2 6 C-1.125 1.125 -1.125 1.125 0 0 Z " fill="#26688D" transform="translate(299,250)"/>
<path d="M0 0 C1.32 0.33 2.64 0.66 4 1 C3.34 9.58 2.68 18.16 2 27 C1.67 27 1.34 27 1 27 C0.67 18.09 0.34 9.18 0 0 Z " fill="#347A92" transform="translate(172,165)"/>
<path d="M0 0 C1.98 0.99 1.98 0.99 4 2 C4.08078641 4.12438339 4.13909141 6.2496323 4.1875 8.375 C4.22230469 9.55835938 4.25710938 10.74171875 4.29296875 11.9609375 C4.19628906 12.96382813 4.09960938 13.96671875 4 15 C3.01 15.66 2.02 16.32 1 17 C0.09586327 13.16275828 -0.10576898 9.62497726 -0.0625 5.6875 C-0.05347656 4.61886719 -0.04445313 3.55023438 -0.03515625 2.44921875 C-0.02355469 1.64097656 -0.01195312 0.83273437 0 0 Z " fill="#132F45" transform="translate(337,300)"/>
<path d="M0 0 C0.33 0 0.66 0 1 0 C1 2.64 1 5.28 1 8 C1.66 8 2.32 8 3 8 C3.054138 10.24973447 3.09285491 12.49984383 3.125 14.75 C3.14820313 16.00296875 3.17140625 17.2559375 3.1953125 18.546875 C3.01537302 21.72820492 2.68998582 23.36521896 1 26 C0.10884819 17.31126982 -0.11624638 8.73139464 0 0 Z " fill="#2B6689" transform="translate(338,264)"/>
<path d="M0 0 C0.66 0 1.32 0 2 0 C1.814375 0.7425 1.62875 1.485 1.4375 2.25 C1.00796892 4.94990963 1.14877026 6.44631077 2 9 C-1.78520613 8.45925627 -3.59177555 6.92427254 -6 4 C-6 3.01 -6 2.02 -6 1 C-4.7934375 1.0309375 -4.7934375 1.0309375 -3.5625 1.0625 C-1.06645115 1.29633621 -1.06645115 1.29633621 0 0 Z " fill="#2798B7" transform="translate(214,232)"/>
<path d="M0 0 C1.98 1.65 3.96 3.3 6 5 C5.67 3.68 5.34 2.36 5 1 C7.5 3.3125 7.5 3.3125 10 6 C10 6.99 10 7.98 10 9 C8.906875 8.835 7.81375 8.67 6.6875 8.5 C3.12474127 7.93281816 3.12474127 7.93281816 0 8 C0 7.34 0 6.68 0 6 C0.66 6 1.32 6 2 6 C1.34 4.02 0.68 2.04 0 0 Z " fill="#16526D" transform="translate(240,296)"/>
<path d="M0 0 C4.82675589 2.41337795 7.69984002 5.86062408 11 10 C10.34 10.66 9.68 11.32 9 12 C5.30561116 9.91598578 3.84139101 8.79496749 2.0625 5 C1.04573661 2.85059376 1.04573661 2.85059376 -1 1 C-0.67 0.67 -0.34 0.34 0 0 Z " fill="#47C3DE" transform="translate(206,199)"/>
<path d="M0 0 C2 3 2 3 3 6 C4.87387216 6.80212628 4.87387216 6.80212628 7.0625 7.1875 C7.79597656 7.34605469 8.52945313 7.50460938 9.28515625 7.66796875 C9.85105469 7.77753906 10.41695312 7.88710937 11 8 C10.67 9.32 10.34 10.64 10 12 C7.75 12.3125 7.75 12.3125 5 12 C1.08617223 8.41232454 0.40712823 5.19088499 0 0 Z " fill="#31A1B3" transform="translate(173,193)"/>
<path d="M0 0 C3.13010458 1.39192704 5.32336692 3.02642226 7.75 5.4375 C8.67039062 6.33275391 8.67039062 6.33275391 9.609375 7.24609375 C11 9 11 9 11 12 C9.125 11.75 9.125 11.75 7 11 C5.9375 9.0625 5.9375 9.0625 5 7 C4.01 6.34 3.02 5.68 2 5 C2 4.34 2 3.68 2 3 C1.01 2.67 0.02 2.34 -1 2 C-0.67 1.34 -0.34 0.68 0 0 Z " fill="#357290" transform="translate(250,304)"/>
<path d="M0 0 C-1.55603771 3.81936528 -3.95604931 6.26044438 -7 9 C-7.66 9 -8.32 9 -9 9 C-9 9.66 -9 10.32 -9 11 C-9.66 10.67 -10.32 10.34 -11 10 C-5.57142857 0 -5.57142857 0 0 0 Z " fill="#3194A9" transform="translate(309,166)"/>
<path d="M0 0 C1.98 0 3.96 0 6 0 C6.33 0.66 6.66 1.32 7 2 C7.66 1.67 8.32 1.34 9 1 C8.979375 1.7425 8.95875 2.485 8.9375 3.25 C8.99360008 5.71840343 9.35920404 7.63864164 10 10 C2.51708428 3.84965831 2.51708428 3.84965831 0 0 Z " fill="#1F7191" transform="translate(276,257)"/>
<path d="M0 0 C1.46484375 1.26953125 2.9296875 2.5390625 4.39453125 3.80859375 C6.10712971 5.20871231 6.10712971 5.20871231 9 6 C9.33 6.99 9.66 7.98 10 9 C9.01 9.495 9.01 9.495 8 10 C4.16917814 8.40382422 2.33343353 7.50015029 0 4 C0 2.68 0 1.36 0 0 Z " fill="#2FA6C8" transform="translate(198,221)"/>
<path d="M0 0 C0.78375 0.04125 1.5675 0.0825 2.375 0.125 C2.375 3.095 2.375 6.065 2.375 9.125 C1.715 8.795 1.055 8.465 0.375 8.125 C0.375 6.145 0.375 4.165 0.375 2.125 C-2.595 4.6 -2.595 4.6 -5.625 7.125 C-4.53409091 0.21590909 -4.53409091 0.21590909 0 0 Z " fill="#2E7E9F" transform="translate(313.625,193.875)"/>
<path d="M0 0 C-0.33 2.31 -0.66 4.62 -1 7 C-1.33 6.34 -1.66 5.68 -2 5 C-4.76276177 5.52268466 -7.3260876 6.10869587 -10 7 C-9.3125 4.625 -9.3125 4.625 -8 2 C-5.08543662 0.43061972 -3.32058331 0 0 0 Z " fill="#46CAEB" transform="translate(340,147)"/>
<path d="M0 0 C3.875 1.75 3.875 1.75 5 4 C8.03525486 6.02350324 9.19426202 6.32124018 12.6875 6.625 C13.89986328 6.73714844 13.89986328 6.73714844 15.13671875 6.8515625 C15.75160156 6.90054687 16.36648438 6.94953125 17 7 C17 7.33 17 7.66 17 8 C6.4690583 9.0735426 6.4690583 9.0735426 2.8671875 6.44140625 C1.40844945 4.69021589 0.14509732 2.96876381 -1 1 C-0.67 0.67 -0.34 0.34 0 0 Z " fill="#13334C" transform="translate(283,309)"/>
<path d="M0 0 C5.0410107 1.44028877 6.90045007 3.97896225 10 8 C10.66 8.66 11.32 9.32 12 10 C7.08624792 9.56643364 4.47270043 7.39377542 1 4 C0.125 1.6875 0.125 1.6875 0 0 Z " fill="#1D6C89" transform="translate(213,267)"/>
<path d="M0 0 C2.25 -0.3125 2.25 -0.3125 5 0 C7.375 2.25 7.375 2.25 9 5 C8.75 7.3125 8.75 7.3125 8 9 C3.71675909 6.48592381 1.35468295 4.87685861 0 0 Z " fill="#1A7A9D" transform="translate(184,269)"/>
<path d="M0 0 C3.73884332 2.65654657 5.64978174 4.58110387 7 9 C4.33333333 7.66666667 1.66666667 6.33333333 -1 5 C-1 4.34 -1 3.68 -1 3 C-1.99 2.67 -2.98 2.34 -4 2 C-3.34 1.67 -2.68 1.34 -2 1 C-1.34 1.33 -0.68 1.66 0 2 C0 1.34 0 0.68 0 0 Z " fill="#174D6B" transform="translate(286,279)"/>
<path d="M0 0 C4.7517398 0.43197635 6.92000054 1.32769295 10 5 C9.01 6.485 9.01 6.485 8 8 C4.65001479 6.88333826 4.20659778 6.25305075 2.3125 3.4375 C1.87550781 2.79683594 1.43851562 2.15617187 0.98828125 1.49609375 C0.49908203 0.75552734 0.49908203 0.75552734 0 0 Z " fill="#19546E" transform="translate(294,276)"/>
<path d="M0 0 C0.33 0 0.66 0 1 0 C1 6.6 1 13.2 1 20 C-3.5 17.75 -3.5 17.75 -5 14 C-2.525 14.99 -2.525 14.99 0 16 C0 10.72 0 5.44 0 0 Z " fill="#3787A1" transform="translate(316,246)"/>
<path d="M0 0 C3.28754511 0.57889381 4.93672495 1.54828411 7.25 3.9375 C7.77078125 4.46214844 8.2915625 4.98679688 8.828125 5.52734375 C10 7 10 7 10 9 C6.63056128 8.39831451 4.50924126 7.34195851 2 5 C0.75 2.3125 0.75 2.3125 0 0 Z " fill="#42BCDC" transform="translate(223,218)"/>
<path d="M0 0 C7.91607732 6.31117397 7.91607732 6.31117397 10 11 C9.67 11.66 9.34 12.32 9 13 C7.48807379 11.59606852 5.99078112 10.17636465 4.5 8.75 C3.6646875 7.96109375 2.829375 7.1721875 1.96875 6.359375 C0 4 0 4 0 0 Z " fill="#2D6A82" transform="translate(237,289)"/>
<path d="M0 0 C0.66 0.33 1.32 0.66 2 1 C1.42676569 4.86933162 -0.38953552 7.15222057 -3 10 C-3.66 10 -4.32 10 -5 10 C-4.29678172 5.66348727 -3.16170037 3.16170037 0 0 Z " fill="#34A3C2" transform="translate(299,204)"/>
<path d="M0 0 C3 4 3 4 3 6 C3.66 5.67 4.32 5.34 5 5 C5.33 5.99 5.66 6.98 6 8 C5.0409375 8.2784375 5.0409375 8.2784375 4.0625 8.5625 C1.57873787 9.94246056 1.57873787 9.94246056 1.25 13.625 C1.1675 14.73875 1.085 15.8525 1 17 C0.67 17 0.34 17 0 17 C0 11.39 0 5.78 0 0 Z " fill="#58E0F7" transform="translate(175,167)"/>
<path d="M0 0 C2.475 0.99 2.475 0.99 5 2 C4.34 5.63 3.68 9.26 3 13 C2.67 13 2.34 13 2 13 C2 9.37 2 5.74 2 2 C0.35 2.66 -1.3 3.32 -3 4 C-2.01 2.68 -1.02 1.36 0 0 Z " fill="#2EA9CB" transform="translate(315,190)"/>
<path d="M0 0 C0.33 0 0.66 0 1 0 C1.226875 1.03125 1.45375 2.0625 1.6875 3.125 C2.86471856 7.34408258 5.04838971 9.81536784 8 13 C5 13 5 13 3.359375 11.6796875 C-1.02764586 6.76026119 -1.02764586 6.76026119 -0.875 2.5625 C-0.58625 1.716875 -0.2975 0.87125 0 0 Z " fill="#3585A4" transform="translate(295,238)"/>
<path d="M0 0 C2.5 1.75 2.5 1.75 5 4 C5 5.32 5 6.64 5 8 C3.68 8.33 2.36 8.66 1 9 C0.67 6.03 0.34 3.06 0 0 Z " fill="#45BDD7" transform="translate(200,191)"/>
<path d="M0 0 C2 0 2 0 4.625 2.3125 C7 5 7 5 7 8 C7.66 8.33 8.32 8.66 9 9 C7.68 9 6.36 9 5 9 C2.29254639 6.21519058 0.57441403 3.87729472 0 0 Z " fill="#0C4D6C" transform="translate(250,307)"/>
<path d="M0 0 C0.99 0 1.98 0 3 0 C2.67 1.98 2.34 3.96 2 6 C0.68 6 -0.64 6 -2 6 C-2.33 5.34 -2.66 4.68 -3 4 C-2.67 3.34 -2.34 2.68 -2 2 C-1.34 2 -0.68 2 0 2 C0 1.34 0 0.68 0 0 Z " fill="#2096B7" transform="translate(221,240)"/>
<path d="M0 0 C3.25543229 0.34879632 4.01873107 1.02133261 6.25 3.5625 C6.8275 4.366875 7.405 5.17125 8 6 C2.25 5.25 2.25 5.25 0 3 C0 2.01 0 1.02 0 0 Z " fill="#399EB7" transform="translate(216,209)"/>
<path d="M0 0 C1.98 1.65 3.96 3.3 6 5 C5.67 5.99 5.34 6.98 5 8 C2.5 6.8125 2.5 6.8125 0 5 C-0.3125 2.3125 -0.3125 2.3125 0 0 Z " fill="#226A86" transform="translate(274,267)"/>
<path d="M0 0 C0.66 0 1.32 0 2 0 C2 0.66 2 1.32 2 2 C3.65 2 5.3 2 7 2 C6.34 3.65 5.68 5.3 5 7 C4.01 7 3.02 7 2 7 C2 5.68 2 4.36 2 3 C1.34 3 0.68 3 0 3 C0 2.01 0 1.02 0 0 Z " fill="#2190B4" transform="translate(174,254)"/>
<path d="M0 0 C4.41889613 1.35021826 6.34345343 3.26115668 9 7 C4.71193127 6.52354792 2.73352513 5.34097516 0 2 C0 1.34 0 0.68 0 0 Z " fill="#39A4C3" transform="translate(234,228)"/>
<path d="M0 0 C1.32 0.33 2.64 0.66 4 1 C3.01 1.33 2.02 1.66 1 2 C0.29788106 3.65204456 -0.36971413 5.31923769 -1 7 C-1.99 7.495 -1.99 7.495 -3 8 C-3.33 7.01 -3.66 6.02 -4 5 C-2.0625 2.3125 -2.0625 2.3125 0 0 Z " fill="#38B0CE" transform="translate(276,197)"/>
<path d="M0 0 C0 0.99 0 1.98 0 3 C-0.66 3.66 -1.32 4.32 -2 5 C-2 5.99 -2 6.98 -2 8 C-2.99 8.66 -3.98 9.32 -5 10 C-5.99 9.67 -6.98 9.34 -8 9 C-5.36 6.03 -2.72 3.06 0 0 Z " fill="#2880A2" transform="translate(296,176)"/>
<path d="M0 0 C1.65 0.99 3.3 1.98 5 3 C5 2.34 5 1.68 5 1 C5.99 1 6.98 1 8 1 C8 1.66 8 2.32 8 3 C4.77208445 5.1519437 3.71599191 5.20086443 0 5 C0 3.35 0 1.7 0 0 Z " fill="#105979" transform="translate(312,263)"/>
<path d="M0 0 C3.36591866 1.44253657 5.51047079 3.33264727 8 6 C7.67 6.99 7.34 7.98 7 9 C5.82737096 7.88121617 4.66204862 6.75476949 3.5 5.625 C2.8503125 4.99851563 2.200625 4.37203125 1.53125 3.7265625 C0 2 0 2 0 0 Z " fill="#56BEDD" transform="translate(249,243)"/>
<path d="M0 0 C4.20626034 1.50223584 5.73900021 4.28550034 8 8 C6.68 8.33 5.36 8.66 4 9 C3.34 8.01 2.68 7.02 2 6 C2.66 6 3.32 6 4 6 C2.68 4.02 1.36 2.04 0 0 Z " fill="#2394AB" transform="translate(229,221)"/>
<path d="M0 0 C3.36720387 1.39332574 4.9859524 2.9789286 7 6 C6.34 6.66 5.68 7.32 5 8 C0 2.25 0 2.25 0 0 Z " fill="#2C6F90" transform="translate(288,268)"/>
<path d="M0 0 C2.99324263 1.0975223 3.84610901 1.67682892 5.25 4.625 C5.4975 5.40875 5.745 6.1925 6 7 C5.01 6.67 4.02 6.34 3 6 C3 5.34 3 4.68 3 4 C1.68 3.34 0.36 2.68 -1 2 C-0.67 1.34 -0.34 0.68 0 0 Z " fill="#2881A3" transform="translate(205,258)"/>
<path d="M0 0 C0.33 0.99 0.66 1.98 1 3 C0.34 3.66 -0.32 4.32 -1 5 C-3.125 4.625 -3.125 4.625 -5 4 C-5 3.01 -5 2.02 -5 1 C-3.35 0.67 -1.7 0.34 0 0 Z " fill="#34B4D3" transform="translate(198,216)"/>
<path d="M0 0 C1.32 0 2.64 0 4 0 C4.33 0.99 4.66 1.98 5 3 C3.6875 5.1875 3.6875 5.1875 2 7 C1.34 7 0.68 7 0 7 C0 4.69 0 2.38 0 0 Z " fill="#2CA9CB" transform="translate(306,192)"/>
<path d="M0 0 C1.14926266 0.95421808 2.29430541 1.91352045 3.4375 2.875 C4.07558594 3.40867187 4.71367187 3.94234375 5.37109375 4.4921875 C7 6 7 6 8 8 C6.68 8 5.36 8 4 8 C0 2.88888889 0 2.88888889 0 0 Z " fill="#152D45" transform="translate(304,298)"/>
<path d="M0 0 C1.32 0.99 2.64 1.98 4 3 C3.67 3.99 3.34 4.98 3 6 C2.67 5.34 2.34 4.68 2 4 C0.02 4.99 0.02 4.99 -2 6 C-1.125 1.125 -1.125 1.125 0 0 Z " fill="#0F6D90" transform="translate(299,250)"/>
<path d="M0 0 C2.9375 0.8125 2.9375 0.8125 6 2 C6.33 2.99 6.66 3.98 7 5 C6.01 5.33 5.02 5.66 4 6 C2.68 4.02 1.36 2.04 0 0 Z " fill="#339EB8" transform="translate(258,253)"/>
<path d="M0 0 C2.4375 0.75 2.4375 0.75 5 2 C5.8125 4.125 5.8125 4.125 6 6 C3.5625 5.25 3.5625 5.25 1 4 C0.1875 1.875 0.1875 1.875 0 0 Z " fill="#2A82A2" transform="translate(213,267)"/>
<path d="M0 0 C1.875 0.3125 1.875 0.3125 4 1 C4.66 1.99 5.32 2.98 6 4 C5.34 4 4.68 4 4 4 C3.67 4.66 3.34 5.32 3 6 C2.01 4.02 1.02 2.04 0 0 Z " fill="#287794" transform="translate(268,263)"/>
<path d="M0 0 C2.88575819 0.39803561 3.82189513 0.79009069 5.75 3.0625 C6.1625 3.701875 6.575 4.34125 7 5 C4.625 4.75 4.625 4.75 2 4 C0.6875 1.9375 0.6875 1.9375 0 0 Z " fill="#2A829F" transform="translate(263,258)"/>
<path d="M0 0 C2.0625 0.1875 2.0625 0.1875 4 1 C4.33 1.99 4.66 2.98 5 4 C1.89448334 4 0.64738916 3.4606285 -2 2 C-1.34 1.34 -0.68 0.68 0 0 Z " fill="#2EC1E0" transform="translate(308,171)"/>
</svg>
